<mxfile host="app.diagrams.net" modified="2021-03-30T07:16:23.665Z" agent="5.0 (Windows NT 10.0; Win64; x64) AppleWebKit/537.36 (KHTML, like Gecko) Chrome/89.0.4389.90 Safari/537.36 Edg/89.0.774.57" etag="lNF52dxYeP1HCoYsVBY7" version="14.3.1" type="github">
  <diagram name="Page-1" id="74e2e168-ea6b-b213-b513-2b3c1d86103e">
    <mxGraphModel dx="2234" dy="2949" grid="1" gridSize="10" guides="1" tooltips="1" connect="1" arrows="1" fold="1" page="1" pageScale="1" pageWidth="1100" pageHeight="850" background="#ffffff" math="0" shadow="0">
      <root>
        <mxCell id="0" />
        <mxCell id="1" parent="0" />
        <mxCell id="M81uTlNmi1jbp-CZmufy-1" value="Main()" style="ellipse;whiteSpace=wrap;html=1;" vertex="1" parent="1">
          <mxGeometry x="390" y="-860" width="120" height="80" as="geometry" />
        </mxCell>
        <mxCell id="M81uTlNmi1jbp-CZmufy-2" value="" style="endArrow=classic;html=1;exitX=0.428;exitY=1;exitDx=0;exitDy=0;exitPerimeter=0;" edge="1" parent="1" source="M81uTlNmi1jbp-CZmufy-1" target="M81uTlNmi1jbp-CZmufy-3">
          <mxGeometry width="50" height="50" relative="1" as="geometry">
            <mxPoint x="440" y="-770" as="sourcePoint" />
            <mxPoint x="220" y="-670" as="targetPoint" />
          </mxGeometry>
        </mxCell>
        <mxCell id="M81uTlNmi1jbp-CZmufy-3" value="SINGLE CHANGE MAIN()" style="ellipse;whiteSpace=wrap;html=1;" vertex="1" parent="1">
          <mxGeometry x="150" y="-690" width="120" height="80" as="geometry" />
        </mxCell>
        <mxCell id="M81uTlNmi1jbp-CZmufy-4" value="" style="endArrow=classic;html=1;exitX=0.5;exitY=1;exitDx=0;exitDy=0;" edge="1" parent="1" source="M81uTlNmi1jbp-CZmufy-1" target="M81uTlNmi1jbp-CZmufy-5">
          <mxGeometry width="50" height="50" relative="1" as="geometry">
            <mxPoint x="440" y="-630" as="sourcePoint" />
            <mxPoint x="650" y="-620" as="targetPoint" />
          </mxGeometry>
        </mxCell>
        <mxCell id="M81uTlNmi1jbp-CZmufy-5" value="MULTI CHNAGE MAIN()" style="ellipse;whiteSpace=wrap;html=1;" vertex="1" parent="1">
          <mxGeometry x="590" y="-660" width="120" height="80" as="geometry" />
        </mxCell>
        <mxCell id="M81uTlNmi1jbp-CZmufy-6" value="" style="endArrow=classic;html=1;exitX=0.5;exitY=1;exitDx=0;exitDy=0;entryX=0.4;entryY=-0.01;entryDx=0;entryDy=0;entryPerimeter=0;" edge="1" parent="1" source="M81uTlNmi1jbp-CZmufy-3" target="M81uTlNmi1jbp-CZmufy-10">
          <mxGeometry width="50" height="50" relative="1" as="geometry">
            <mxPoint x="440" y="-630" as="sourcePoint" />
            <mxPoint x="200" y="-500" as="targetPoint" />
          </mxGeometry>
        </mxCell>
        <mxCell id="M81uTlNmi1jbp-CZmufy-7" value="TEST PREPARATION" style="text;html=1;strokeColor=none;fillColor=none;align=center;verticalAlign=middle;whiteSpace=wrap;rounded=0;" vertex="1" parent="1">
          <mxGeometry x="240" y="-580" width="40" height="20" as="geometry" />
        </mxCell>
        <mxCell id="M81uTlNmi1jbp-CZmufy-8" value="" style="endArrow=classic;html=1;exitX=0.5;exitY=1;exitDx=0;exitDy=0;" edge="1" parent="1" source="M81uTlNmi1jbp-CZmufy-5">
          <mxGeometry width="50" height="50" relative="1" as="geometry">
            <mxPoint x="650" y="-560" as="sourcePoint" />
            <mxPoint x="650" y="-490" as="targetPoint" />
          </mxGeometry>
        </mxCell>
        <mxCell id="M81uTlNmi1jbp-CZmufy-9" value="TEST PREPARATION" style="text;html=1;strokeColor=none;fillColor=none;align=center;verticalAlign=middle;whiteSpace=wrap;rounded=0;" vertex="1" parent="1">
          <mxGeometry x="690" y="-560" width="40" height="20" as="geometry" />
        </mxCell>
        <mxCell id="M81uTlNmi1jbp-CZmufy-10" value="1.WE CLONE COMPONENT REPOSITORY,eg: RFSW/INTERNAL/coco&lt;br&gt;2. check for jenkinsfile if exist,we create a &quot;new_jenkinsfile&quot; which has &quot;return this&quot;&lt;br&gt;3.check RFSCM/scripts version/tags for eg: 2.0.158&lt;br&gt;2.0 -&amp;gt; is mentioned as VERSION-2.0 in jenkinsfile&lt;br&gt;158 -&amp;gt; is the latest version of tags in RFSCMscripts" style="rounded=1;whiteSpace=wrap;html=1;" vertex="1" parent="1">
          <mxGeometry x="80" y="-500" width="330" height="130" as="geometry" />
        </mxCell>
        <mxCell id="M81uTlNmi1jbp-CZmufy-11" value="" style="endArrow=classic;html=1;exitX=0.446;exitY=1.031;exitDx=0;exitDy=0;exitPerimeter=0;" edge="1" parent="1" source="M81uTlNmi1jbp-CZmufy-10">
          <mxGeometry width="50" height="50" relative="1" as="geometry">
            <mxPoint x="430" y="-400" as="sourcePoint" />
            <mxPoint x="227" y="-260" as="targetPoint" />
          </mxGeometry>
        </mxCell>
        <mxCell id="M81uTlNmi1jbp-CZmufy-13" value="Supervisor" style="text;html=1;strokeColor=none;fillColor=none;align=center;verticalAlign=middle;whiteSpace=wrap;rounded=0;" vertex="1" parent="1">
          <mxGeometry x="240" y="-330" width="40" height="20" as="geometry" />
        </mxCell>
        <mxCell id="M81uTlNmi1jbp-CZmufy-15" value="1.Supervisor.groovy&lt;br&gt;2.Load groovy scripts + &quot;PROJECT DEFENTION&quot;&lt;br&gt;3.Fetch jenkins config from jenkinsfile and assign it to &quot;jenkinsConfig&quot;&amp;nbsp;&lt;br&gt;4.if project doesnt exist in PROJECT DEFENTION update error log to logstash&lt;br&gt;5. set verificationflag&lt;br&gt;6.abort old pachset&lt;br&gt;7.Test definition&amp;nbsp;" style="rounded=1;whiteSpace=wrap;html=1;" vertex="1" parent="1">
          <mxGeometry x="25" y="-260" width="440" height="170" as="geometry" />
        </mxCell>
      </root>
    </mxGraphModel>
  </diagram>
</mxfile>
